<?xml version="1.0" encoding="utf-8"?>
<svg viewBox="0 0 4704.123 4704.123" xmlns="http://www.w3.org/2000/svg">
  <defs>
    <style>
      .cls-1 {
        fill: #004623;
      }

      .cls-1, .cls-3, .cls-4, .cls-5 {
        stroke: #000;
      }

      .cls-1, .cls-2 {
        stroke-width: 100px;
      }

      .cls-2, .cls-5 {
        fill: none;
      }

      .cls-2 {
        stroke: #fee7bb;
      }

      .cls-3 {
        fill: #fff;
      }

      .cls-3, .cls-4, .cls-5 {
        stroke-linejoin: round;
        stroke-width: 40px;
        fill-rule: evenodd;
      }

      .cls-4 {
        fill: #ecc166;
      }

      .cls-5 {
        stroke-linecap: round;
      }
    </style>
  </defs>
  <circle id="OUTTER" class="cls-1" cx="2352.061" cy="2352.061" r="2302.061" style="fill: none;"/>
  <circle id="INNER" class="cls-2" cx="2352.064" cy="2352.064" r="2055.408" style="stroke-width: 35px; stroke: rgb(0, 0, 0);"/>
  <g id="Boisson2022">
    <path id="CUP" class="cls-3" d="M1904,3780L1651,1635h268v328c0,178.93,235,182.39,235,0V1863c0-153.04,197-156.77,197,0v417c0,141.21,182,156.69,182,0V1643h615L2906,3777Z" transform="translate(-47.938 -47.938)"/>
    <path id="CUP_copy" data-name="CUP copy" class="cls-4" d="M1681.84,1894.46L1881.57,3576.2l1046.86-.2,192.33-1681Z" transform="translate(-47.938 -47.938)"/>
    <path id="Line" class="cls-5" d="M1885,3576H2921.07" transform="translate(-47.938 -47.938)"/>
    <path id="Line_Top" class="cls-5" d="M1684.54,1895H3113" transform="translate(-47.938 -47.938)"/>
    <path id="FOAM" class="cls-3" d="M3148,1643H2533v637c0,156.69-182,141.21-182,0V1863c0-156.77-197-153.04-197,0v100c0,182.39-235,178.93-235,0V1635H1692s-40.23-118.54,52-194c79.87-65.34,174-50,174-50-0.07.02-43.89-111.5,63.4-189.39C2084.53,1126.75,2168,1178,2168,1178s53.09-167.69,232-166c200.47,1.9,240,166,240,166s113.27-44.04,195,43c85.09,90.61,46,180,46,180s104.09-38.7,187,48c78.3,81.88,29,193.47,29,193.47Z" transform="translate(-47.938 -47.938)"/>
  </g>
</svg>