<svg xmlns="http://www.w3.org/2000/svg" width="1797" height="483" viewBox="0 0 1797 483">
  <defs>
    <style>
      .cls-1 {
        fill: #fee7bb;
        stroke: #000;
        stroke-linejoin: round;
        stroke-width: 3px;
        fill-rule: evenodd;
      }
    </style>
  </defs>
  <path id="MoonAlps3_Shape_wSTROKE" class="cls-1" d="M1058.77,820.151L1001.95,733.4v0.748L797.833,1044.52H753.721v-1.5L975.777,707.969h53.833l50.84,77.78h0.75l51.59-77.78h53.83l171.96,261.759s-9.05,9.221-13.46,13.462c-3.94,3.789-12.71,10.47-12.71,10.47l-1.49-.748L1160.45,734.893h-1.5L1039.33,916.628H995.216C995.216,916.13,1058.77,820.151,1058.77,820.151Zm1006.35,80.024H1917.09L1840.82,1052h-41.87v-0.75L1970.17,714.7h51.59l86.73,169.769v82.268L1996.34,746.111l-0.75,1.5-59.07,115.174h110.66Zm51.59-121.9h37.39v157.8c-0.01,23.219-4.42,52.309,10.59,65.987,11.64,10.6,23.73,13.08,43.77,13.28,13.39,0.13,28.27.08,44.33,0.01V1052c-19.68.16-36.74-.45-51.78-0.45-30.72,0-53.3-11.61-68.47-31.55-20.19-26.537-15.83-52.38-15.83-89.91V778.27Zm91.22,0s84.63,0.217,117.52.217c32.71,0,43.22,6.514,43.22,6.514s-10.15,7.107-17.05,14.423c-5.78,6.14-11.36,16.24-11.36,16.24H2296.9v80.771c13.41,0.033,26.74.194,38.27,0.194,17.04,0,30.56-5.907,38.74-17.395a50.2,50.2,0,0,0,6.73-14.21c0.5-5.982.99-10.471,1.49-16.453,3.71-11.859,15.59-22.761,29.16-24.68,2.71,6.965,5.97,16.582,6.88,24.883,2.23,20.408-4.83,34.45-11.36,46.166-11.77,21.074-30.69,32.115-57.57,38.142H2296.9V1052h-36.64V815.664h-52.33V778.27Zm315.51,0.748v36.646h-81.49c-19.86,0-35.36-1.546-49.35,6.731-8.99,5.318-15.71,16.3-18.69,27.672v13.461a39.576,39.576,0,0,1-29.02,24.875c-4.77-10.067-7.62-24.482-7.62-30.858,0-18.145,3.77-28.81,10.47-39.637,10.25-16.552,24.1-28.573,44.11-35.151,13.95-4.586,32.51-3.74,50.84-3.739h80.75Zm-1167.1,22.436c-3.79,2.49-18.73,14.193-26.86,26.383-12.99-9.1-39.22-12.491-60.62-9.929-20.65-32.443-10.67-14.62-21.68-32.159C1300.71,774.25,1332.46,786.608,1356.34,801.454Zm184.67-20.941h38.88l145.05,219.877V780.513h37.38V1052h-48.6L1579.14,847.075h-0.75V1052h-37.38v-43.38h-0.75v1.49c-8.26,6.9-14.25,12.9-22.43,18.7-29.05,20.59-75.91,28.18-111.4,17.95-9.43-2.72-27.07-9.06-35.89-16.45,7.86-5.97,20.99-16.94,26.92-26.93,8.82,3.71,15.27,7.51,28.41,9.73,14.07,2.37,32.13,1.37,43.37-2.25,31.76-10.22,51.78-28.16,64.29-57.585,8.31-19.53,10.62-46.642,2.99-68.058a120.7,120.7,0,0,0-14.2-27.672c-10.69-14.961-28.3-28.8-47.1-35.15-60.59-20.467-113.74,20.489-127.11,62.822-8.52,30.852-2.99,49.361-2.99,49.361l-34.39-51.6s5.69-22.859,19.49-43.173c12.86-18.915,33.79-36.082,49.3-45.078,6.37-3.7,12.97-4.611,20.18-7.479,20.14-8.006,55.17-10.473,78.51-2.991a166.755,166.755,0,0,1,48.6,24.68c5.14,3.806,8.9,9.832,14.2,13.462V780.513Zm-340.19,29.916c2.29,3.857,18.08,26.6,20.19,29.915-7.49,6.314-8.25,6.156-14.95,14.958-12.39,16.275-25.65,48.248-18.69,80.023,8.63,39.443,34.54,65.465,73.27,76.285,55.8,15.6,104.06-24.146,117.38-62.823,5.79-16.8,7.38-43.312,1.5-61.326-2.85-8.7-11.97-24.68-11.97-24.68s12.67-17.526,28.41-25.428c0.98,3.437,3.1,4.23,4.49,6.731,21.24,38.252,27.56,83.954,8.22,124.9-19.29,40.86-42.53,63.16-90.46,77.78-17.07,5.21-43.76,6.8-65.05.75-55.03-15.63-85.29-47.54-100.93-100.967-2.46-8.372-2.99-19.88-3-29.915,0-41.544,13.86-64.175,31.41-87.5C1184.66,823.771,1194.4,814.24,1200.82,810.429Zm1104.3,240.821V1014.6H2425.5c36.42,0,61.09,3.43,75.51-22.435,7.92-14.206,5.7-28.125-2.24-39.638-5.64-8.168-9.64-12.671-20.03-16.269-13.27-4.6-32.69-2.621-49.35-2.991-4.74-.105-12.47,0-17.2,0-16.09-1.144-26.17-6.729-26.17-6.729s10.76-6.447,17.94-13.459c4.28-4.173,10.09-11.832,11.07-15.9h47.36c13.22,0,40.76,2.751,60.46,26.364,17.66,21.165,19.28,37.308,19.28,48.424,0,21.826-4.86,31.869-13.46,44.129-11.57,16.49-26.45,27.78-48.59,33.65-16.13,4.28-39.67,1.5-58.32,1.5H2305.12Zm-500.09,6.14c16.86-.26,24.72,1.51,37.29,4.33v31.41h-1.5c-8.46-7.62-31.66-10.88-38.87-5.98-2.69,2.48-3.5,4.01-2.25,8.97,2.35,9.49,35.01,11.69,44.86,30.66a40.4,40.4,0,0,1,4.59,18.1c0,8.87-4.01,15.58-8.33,21.54-8.38,11.59-28.44,15.84-47,15.84-15.47,0-26.15-4.64-32.25-6.12v-34.4h0.75c4.21,6.05,35.42,19.13,43.46,9.12,7.51-10.25-9.04-15.55-15.05-18.09-13.29-5.63-30.56-12.96-30.56-37.99C1760.17,1067.82,1788.3,1057.52,1805.03,1057.39Zm296.73,2.08h38.13l-38.88,120.41h-41.87l-38.13-120.41h38.88l21.05,87.65Zm-524.86,0h76.26v29.17h-38.88v20.19h35.89V1138h-35.89v41.88H1576.9V1059.47Zm92.71,0h76.26v29.17h-38.88v16.45h35.89v29.17h-35.89v16.46h41.12v29.16h-78.5V1059.47Zm183.92,0h104.68v29.17h-34.4v91.24h-36.63v-91.24h-33.65v-29.17Zm118.14,0h37.38v120.41h-37.38V1059.47Zm194.39,98.72-5.24,21.69H2121.2l41.87-120.41h44.86l0.74,2.25,38.14,118.16h-39.63l-5.23-21.69h-35.89Zm94.2-98.72h36.64v91.25h41.87v29.16h-78.51V1059.47Zm-65.04,71.8-10.47-44.87-11.96,44.87h22.43Z" transform="translate(-749.5 -703.5)"/>
</svg>
