<?xml version="1.0" encoding="utf-8"?>
<svg viewBox="-49.539 0 6542.876 1475.227" xmlns="http://www.w3.org/2000/svg">
  <defs>
    <style>
      .cls-1, .cls-2, .cls-3 {
        stroke: #000;
        stroke-width: 20px;
      }

      .cls-1, .cls-2, .cls-3, .cls-4 {
        fill-rule: evenodd;
      }

      .cls-1 {
        fill: url(#linear-gradient);
      }

      .cls-2, .cls-3 {
        fill: none;
        stroke-linecap: round;
      }

      .cls-2 {
        stroke-linejoin: bevel;
      }

      .cls-4 {
        fill: #13633b;
      }
    </style>
  </defs>
  <path id="TREES_copy" data-name="TREES copy" class="cls-1" d="M -40.169 1679.173 L -40.169 755.364 L 61.638 755.364 C 158.219 755.364 157.864 624.926 61.638 624.926 L -58.883 624.926 L -58.883 205.342 L 53.4 200.663 L 341.4 200.663 C 446.009 200.663 444.656 333.539 346.078 333.539 L 266.549 333.539 C 114.649 333.539 119.772 537.539 266.549 537.539 L 441.708 537.539 C 563.398 537.539 563.822 705.976 441.708 705.976 L 421.873 705.976 C 322.442 705.976 328.12 854.522 421.938 854.522 C 550.55 854.522 408.56 1042.632 562.878 1042.632 L 576.354 1042.632 C 728.502 1042.632 593.254 897.732 723.641 897.732 C 725.25 897.732 818.988 897.618 820.684 897.618 C 949.607 897.618 945.129 739.976 820.612 739.976 C 720.628 739.976 721.029 593.686 820.684 593.686 L 1092.04 593.686 C 1204.13 593.686 1199.35 740.042 1087.36 740.042 C 963.76 740.042 972.246 897.618 1087.36 897.618 L 1240.06 897.618 C 1413.39 897.618 1410.47 1103.484 1240.06 1103.484 L 1221.35 1103.484 C 1101.06 1103.484 1106.33 1290.824 1221.35 1290.824 L 1342.62 1290.824 C 1389.7 1290.824 1436.19 1269.804 1436.19 1215.964 C 1436.19 1189.294 1449.55 1141.144 1529.66 1141.144 C 1531.22 1141.144 1581.67 1141.104 1583.29 1141.104 C 1680.7 1141.104 1683.32 985.775 1583.29 985.775 C 1451.15 985.775 1450.98 823.324 1583.29 823.324 L 1826.57 823.324 C 1946.87 823.324 1950.41 985.775 1826.57 985.775 C 1714.25 985.775 1715.04 1141.104 1826.57 1141.104 C 1882.97 1141.104 1922.99 1140.894 1953.74 1140.894 C 2023.41 1140.894 1947.95 1063.424 2039.39 1063.424 L 2093 1063.404 C 2189.62 1063.404 2190.15 935.239 2093.25 935.239 C 1999.17 935.239 2002.87 805.176 2093.25 805.176 C 2230.74 805.176 2160.62 805.111 2278.86 805.111 C 2399.85 805.111 2403.65 621.956 2275.53 621.956 C 2177.16 621.956 2174.26 481.033 2275.53 481.033 L 2556 481.033 C 2684.15 481.033 2687.63 635.004 2558 635.004 C 2543.13 635.004 2551.85 635.432 2529.68 635.432 C 2396.02 635.432 2400.79 834.261 2529.68 834.261 L 2712 834.261 C 2805.39 834.261 2809.09 977.004 2712 977.004 L 2620 977.004 C 2555.28 977.004 2537 1020.534 2537 1065.004 L 2537 1095.004 C 2537 1143.694 2567.86 1179.004 2621 1179.004 L 2899 1179.004 C 2970.78 1179.004 2971.93 1080.004 2899 1080.004 C 2829.86 1080.004 2827.32 992.004 2899 992.004 L 3107 992.004 C 3211.97 992.004 3215.51 854.004 3107 854.004 L 3078 854.004 C 2979.64 854.004 2977.74 738.004 3078 738.004 L 3365 738.004 C 3465.26 738.004 3463.36 854.004 3365 854.004 L 3336 854.004 C 3227.49 854.004 3231.03 992.004 3336 992.004 L 3544 992.004 C 3615.68 992.004 3613.14 1080.004 3544 1080.004 C 3471.07 1080.004 3472.21 1179.004 3544 1179.004 L 3822 1179.004 C 3875.14 1179.004 3906 1143.694 3906 1095.004 L 3906 1065.004 C 3906 1020.534 3887.72 977.004 3823 977.004 L 3731 977.004 C 3633.91 977.004 3637.61 834.261 3731 834.261 L 3913.32 834.261 C 4042.21 834.261 4046.98 635.432 3913.32 635.432 C 3891.15 635.432 3899.87 635.004 3885 635.004 C 3755.37 635.004 3758.85 481.033 3887 481.033 L 4167.47 481.033 C 4268.74 481.033 4265.84 621.956 4167.47 621.956 C 4039.35 621.956 4043.15 805.111 4164.14 805.111 C 4282.38 805.111 4212.26 805.176 4349.75 805.176 C 4440.13 805.176 4443.83 935.239 4349.75 935.239 C 4252.85 935.239 4253.38 1063.404 4350 1063.404 L 4403.61 1063.424 C 4495.05 1063.424 4419.59 1140.894 4489.26 1140.894 C 4520.01 1140.894 4560.03 1141.104 4616.43 1141.104 C 4727.96 1141.104 4728.75 985.775 4616.43 985.775 C 4492.59 985.775 4496.13 823.324 4616.43 823.324 L 4859.71 823.324 C 4992.02 823.324 4991.85 985.775 4859.71 985.775 C 4759.68 985.775 4762.3 1141.104 4859.71 1141.104 C 4861.33 1141.104 4911.78 1141.144 4913.34 1141.144 C 4993.45 1141.144 5006.81 1189.294 5006.81 1215.964 C 5006.81 1269.804 5053.3 1290.824 5100.38 1290.824 L 5221.65 1290.824 C 5336.67 1290.824 5341.94 1103.484 5221.65 1103.484 L 5202.94 1103.484 C 5032.53 1103.484 5029.61 897.618 5202.94 897.618 L 5355.64 897.618 C 5470.75 897.618 5479.24 740.042 5355.64 740.042 C 5243.65 740.042 5238.87 593.686 5350.96 593.686 L 5622.32 593.686 C 5721.97 593.686 5722.37 739.976 5622.39 739.976 C 5497.87 739.976 5493.39 897.618 5622.32 897.618 C 5624.01 897.618 5717.75 897.732 5719.36 897.732 C 5849.75 897.732 5714.5 1042.632 5866.65 1042.632 L 5880.12 1042.632 C 6034.44 1042.632 5892.45 854.522 6021.06 854.522 C 6114.88 854.522 6120.56 705.976 6021.13 705.976 L 6001.29 705.976 C 5879.18 705.976 5879.6 537.539 6001.29 537.539 L 6176.45 537.539 C 6323.23 537.539 6328.35 333.539 6176.45 333.539 L 6096.92 333.539 C 5998.34 333.539 5996.98 200.663 6101.59 200.663 L 6389.6 200.663 L 6501.88 205.342 L 6501.88 624.926 L 6381.36 624.926 C 6285.14 624.926 6284.78 755.364 6381.36 755.364 L 6488.467 1028.872 L 6497.251 1666.832" style="fill: none;" transform="matrix(1, 0, 0, 1, 0, -190.656006)"/>
  <g id="ValidLeftFIXED">
    <path id="Valid03" class="cls-2" d="M1273.75,1291.47h116.03c146.46,0,146.32,184.54.21,184.54-95.52,0-87.6,85.38-87.6,87.59" transform="translate(0 -190.656)"/>
    <path id="Valid02" class="cls-3" d="M2049.76,1273.86c100.46,0,101.34-132.12-.26-132.12h-96.32" transform="translate(0 -190.656)"/>
    <path id="Valid01" class="cls-3" d="M517.4,1200.99c-128.283,0-125.968-158.3-.1-158.3,30.274,0,60.747-.05,60.747-0.05" transform="translate(0 -190.656)"/>
  </g>
  <g id="BiggersFIXED">
    <path id="Bigger_copy_12" data-name="Bigger copy 12" class="cls-4" d="M3066.17,755.18h95c61.1,0,58.97,84.266,0,84.266h-95.7C3006.73,839.446,3004.04,755.18,3066.17,755.18Z" transform="translate(0 -190.656)"/>
    <path id="Bigger_copy_11" data-name="Bigger copy 11" class="cls-4" d="M2896.1,1005.37h53.28c46.29,0,44.67,63.84,0,63.84h-53.81C2851.08,1069.21,2849.04,1005.37,2896.1,1005.37Z" transform="translate(0 -190.656)"/>
    <path id="Bigger_copy_10" data-name="Bigger copy 10" class="cls-4" d="M2632.7,858.317h75.9c70.75,0,68.28,97.574,0,97.574h-76.71C2563.88,955.891,2560.76,858.317,2632.7,858.317Z" transform="translate(0 -190.656)"/>
    <path id="Bigger_copy_9" data-name="Bigger copy 9" class="cls-4" d="M2279.9,495.948h93.41c82.73,0,79.83,114.084,0,114.084h-94.36C2199.43,610.032,2195.78,495.948,2279.9,495.948Z" transform="translate(0 -190.656)"/>
    <path id="Bigger_copy_9-2" data-name="Bigger copy 9" class="cls-4" d="M2096.3,818.963h109.09c75.51,0,72.87,104.139,0,104.139H2095.43C2022.85,923.1,2019.52,818.963,2096.3,818.963Z" transform="translate(0 -190.656)"/>
    <path id="Bigger_copy_2" data-name="Bigger copy 2" class="cls-4" d="M1889.15,1156.78H2051c75.46,0,72.82,104.07,0,104.07H1888.28C1815.75,1260.85,1812.42,1156.78,1889.15,1156.78Z" transform="translate(0 -190.656)"/>
    <path id="Bigger_copy_6" data-name="Bigger copy 6" class="cls-4" d="M1571.28,842.729h200.89c90.15,0,87,124.325,0,124.325H1570.25C1483.59,967.054,1479.62,842.729,1571.28,842.729Z" transform="translate(0 -190.656)"/>
    <path id="Bigger_copy_3" data-name="Bigger copy 3" class="cls-4" d="M1273.62,1324.55h128.66c89.04,0,85.93,122.81,0,122.81H1272.6C1187.01,1447.36,1183.08,1324.55,1273.62,1324.55Z" transform="translate(0 -190.656)"/>
    <path id="Bigger_copy_4" data-name="Bigger copy 4" class="cls-4" d="M1020.34,923.1h233.37c114.52,0,110.52,157.937,0,157.937H1019.03C908.945,1081.04,903.9,923.1,1020.34,923.1Z" transform="translate(0 -190.656)"/>
    <path id="Bigger_copy_6-2" data-name="Bigger copy 6" class="cls-4" d="M820.612,611.947H934.6c70.031,0,68.271,109.5,0,109.5H819.489C748.267,721.442,747.692,611.947,820.612,611.947Z" transform="translate(0 -190.656)"/>
    <path id="Bigger_copy_5" data-name="Bigger copy 5" class="cls-4" d="M509.709,1069.02H665.586c76.256,0,73.59,105.17,0,105.17H508.833C435.531,1174.19,432.172,1069.02,509.709,1069.02Z" transform="translate(0 -190.656)"/>
    <path id="Bigger_copy_7" data-name="Bigger copy 7" class="cls-4" d="M343.226,557.215h98.586c93.846,0,90.565,129.422,0,129.422H342.149C251.938,686.637,247.805,557.215,343.226,557.215Z" transform="translate(0 -190.656)"/>
    <path id="Bigger_copy_8" data-name="Bigger copy 8" class="cls-4" d="M241.579,217.5H347.114c73.558,0,70.986,101.443,0,101.443H240.735C170.027,318.945,166.786,217.5,241.579,217.5Z" transform="translate(0 -190.656)"/>
  </g>
  <g id="ValidLeftFIXED_RIGHT">
    <path id="Valid03-2" data-name="Valid03" class="cls-2" d="M5169.25,1292.47H5053.22c-146.46,0-146.32,184.54-.21,184.54,95.52,0,87.85,85.4,87.6,87.59" transform="translate(0 -190.656)"/>
    <path id="Valid02-2" data-name="Valid02" class="cls-3" d="M4393.24,1273.86c-100.46,0-101.34-132.12.26-132.12h96.32" transform="translate(0 -190.656)"/>
    <path id="Valid01-2" data-name="Valid01" class="cls-3" d="M5925.6,1200.99c128.29,0,125.97-158.3.11-158.3-30.28,0-60.75-.05-60.75-0.05" transform="translate(0 -190.656)"/>
  </g>
  <g id="BiggersFIXED_RIGHT">
    <path id="Bigger_copy_11-2" data-name="Bigger copy 11" class="cls-4" d="M3546.9,1005.37h-53.28c-46.29,0-44.67,63.84,0,63.84h53.81C3591.92,1069.21,3593.96,1005.37,3546.9,1005.37Z" transform="translate(0 -190.656)"/>
    <path id="Bigger_copy_10-2" data-name="Bigger copy 10" class="cls-4" d="M3810.3,858.317h-75.9c-70.75,0-68.28,97.574,0,97.574h76.71C3879.12,955.891,3882.24,858.317,3810.3,858.317Z" transform="translate(0 -190.656)"/>
    <path id="Bigger_copy_9-3" data-name="Bigger copy 9" class="cls-4" d="M4163.1,495.948h-93.41c-82.73,0-79.83,114.084,0,114.084h94.36C4243.57,610.032,4247.22,495.948,4163.1,495.948Z" transform="translate(0 -190.656)"/>
    <path id="Bigger_copy_9-4" data-name="Bigger copy 9" class="cls-4" d="M4346.7,818.963H4237.61c-75.51,0-72.87,104.139,0,104.139h109.96C4420.15,923.1,4423.48,818.963,4346.7,818.963Z" transform="translate(0 -190.656)"/>
    <path id="Bigger_copy_2-2" data-name="Bigger copy 2" class="cls-4" d="M4540.81,1155.86H4396.03c-77.09,0-74.39,106.3,0,106.3h145.66C4615.79,1262.16,4619.18,1155.86,4540.81,1155.86Z" transform="translate(0 -190.656)"/>
    <path id="Bigger_copy_6-3" data-name="Bigger copy 6" class="cls-4" d="M4871.72,842.729H4670.83c-90.15,0-87,124.325,0,124.325h201.92C4959.41,967.054,4963.38,842.729,4871.72,842.729Z" transform="translate(0 -190.656)"/>
    <path id="Bigger_copy_3-2" data-name="Bigger copy 3" class="cls-4" d="M5204.99,1312.3H5050.67c-106.82,0-103.08,147.31,0,147.31h155.55C5308.9,1459.61,5313.6,1312.3,5204.99,1312.3Z" transform="translate(0 -190.656)"/>
    <path id="Bigger_copy_4-2" data-name="Bigger copy 4" class="cls-4" d="M5422.66,923.1H5189.29c-114.52,0-110.52,157.937,0,157.937h234.68C5534.05,1081.04,5539.1,923.1,5422.66,923.1Z" transform="translate(0 -190.656)"/>
    <path id="Bigger_copy_6-4" data-name="Bigger copy 6" class="cls-4" d="M5622.39,611.947H5508.4c-70.03,0-68.27,109.5,0,109.5h115.11C5694.73,721.442,5695.31,611.947,5622.39,611.947Z" transform="translate(0 -190.656)"/>
    <path id="Bigger_copy_5-2" data-name="Bigger copy 5" class="cls-4" d="M5933.44,1063.52h-146.8c-86,0-83,118.61,0,118.61h147.79C6017.1,1182.13,6020.89,1063.52,5933.44,1063.52Z" transform="translate(0 -190.656)"/>
    <path id="Bigger_copy_7-2" data-name="Bigger copy 7" class="cls-4" d="M6099.77,557.215h-98.58c-93.85,0-90.57,129.422,0,129.422h99.66C6191.06,686.637,6195.2,557.215,6099.77,557.215Z" transform="translate(0 -190.656)"/>
    <path id="Bigger_copy_8-2" data-name="Bigger copy 8" class="cls-4" d="M6201.42,217.5H6095.89c-73.56,0-70.99,101.443,0,101.443h106.38C6272.97,318.945,6276.21,217.5,6201.42,217.5Z" transform="translate(0 -190.656)"/>
  </g>
</svg>