<svg id="Trees_OPEN" data-name="Trees OPEN" xmlns="http://www.w3.org/2000/svg" xmlns:xlink="http://www.w3.org/1999/xlink" width="6458" height="2142.344" viewBox="0 0 6458 2142.344">
  <defs>
    <style>
      .cls-1, .cls-2, .cls-3 {
        stroke: #000;
        stroke-width: 20px;
      }

      .cls-1, .cls-2, .cls-3, .cls-4 {
        fill-rule: evenodd;
      }

      .cls-1 {
        fill: url(#linear-gradient);
      }

      .cls-2, .cls-3 {
        fill: none;
        stroke-linecap: round;
      }

      .cls-2 {
        stroke-linejoin: bevel;
      }

      .cls-4 {
        fill: #13633b;
      }
    </style>
    <linearGradient id="linear-gradient" x1="3229" y1="2333" x2="3229" gradientUnits="userSpaceOnUse">
      <stop offset="0" stop-color="#004623"/>
      <stop offset="1" stop-color="#082b16"/>
    </linearGradient>
  </defs>
  <path id="TREES_copy" data-name="TREES copy" class="cls-1" d="M-40.169,3183.28V755.364H61.638c96.581,0,96.226-130.438,0-130.438H-58.883V205.342L53.4,200.663h288c104.609,0,103.256,132.876,4.678,132.876H266.549c-151.9,0-146.777,204,0,204H441.708c121.69,0,122.114,168.437,0,168.437H421.873c-99.431,0-93.753,148.546.065,148.546,128.612,0-13.378,188.11,140.94,188.11h13.476c152.148,0,16.9-144.9,147.287-144.9,1.609,0,95.347-.114,97.043-0.114,128.923,0,124.445-157.642-.072-157.642-99.984,0-99.583-146.29.072-146.29H1092.04c112.09,0,107.31,146.356-4.68,146.356-123.6,0-115.114,157.576,0,157.576h152.7c173.33,0,170.41,205.866,0,205.866h-18.71c-120.29,0-115.02,187.34,0,187.34h121.27c47.08,0,93.57-21.02,93.57-74.86,0-26.67,13.36-74.82,93.47-74.82,1.56,0,52.01-.04,53.63-0.04,97.41,0,100.03-155.329,0-155.329-132.14,0-132.31-162.451,0-162.451h243.28c120.3,0,123.84,162.451,0,162.451-112.32,0-111.53,155.329,0,155.329,56.4,0,96.42-.21,127.17-0.21,69.67,0-5.79-77.47,85.65-77.47l53.61-.02c96.62,0,97.15-128.165.25-128.165-94.08,0-90.38-130.063,0-130.063,137.49,0,67.37-.065,185.61-0.065,120.99,0,124.79-183.155-3.33-183.155-98.37,0-101.27-140.923,0-140.923H2556c128.15,0,131.63,153.971,2,153.971-14.87,0-6.15.428-28.32,0.428-133.66,0-128.89,198.829,0,198.829H2712c93.39,0,97.09,142.743,0,142.743h-92c-64.72,0-83,43.53-83,88v30c0,48.69,30.86,84,84,84h278c71.78,0,72.93-99,0-99-69.14,0-71.68-88,0-88h208c104.97,0,108.51-138,0-138h-29c-98.36,0-100.26-116,0-116h287c100.26,0,98.36,116,0,116h-29c-108.51,0-104.97,138,0,138h208c71.68,0,69.14,88,0,88-72.93,0-71.79,99,0,99h278c53.14,0,84-35.31,84-84v-30c0-44.47-18.28-88-83-88h-92c-97.09,0-93.39-142.743,0-142.743h182.32c128.89,0,133.66-198.829,0-198.829-22.17,0-13.45-.428-28.32-0.428-129.63,0-126.15-153.971,2-153.971h280.47c101.27,0,98.37,140.923,0,140.923-128.12,0-124.32,183.155-3.33,183.155,118.24,0,48.12.065,185.61,0.065,90.38,0,94.08,130.063,0,130.063-96.9,0-96.37,128.165.25,128.165l53.61,0.02c91.44,0,15.98,77.47,85.65,77.47,30.75,0,70.77.21,127.17,0.21,111.53,0,112.32-155.329,0-155.329-123.84,0-120.3-162.451,0-162.451h243.28c132.31,0,132.14,162.451,0,162.451-100.03,0-97.41,155.329,0,155.329,1.62,0,52.07.04,53.63,0.04,80.11,0,93.47,48.15,93.47,74.82,0,53.84,46.49,74.86,93.57,74.86h121.27c115.02,0,120.29-187.34,0-187.34h-18.71c-170.41,0-173.33-205.866,0-205.866h152.7c115.11,0,123.6-157.576,0-157.576-111.99,0-116.77-146.356-4.68-146.356h271.36c99.65,0,100.05,146.29.07,146.29-124.52,0-129,157.642-.07,157.642,1.69,0,95.43.114,97.04,0.114,130.39,0-4.86,144.9,147.29,144.9h13.47c154.32,0,12.33-188.11,140.94-188.11,93.82,0,99.5-148.546.07-148.546h-19.84c-122.11,0-121.69-168.437,0-168.437h175.16c146.78,0,151.9-204,0-204h-79.53c-98.58,0-99.94-132.876,4.67-132.876H6389.6l112.28,4.679V624.926H6381.36c-96.22,0-96.58,130.438,0,130.438h101.81V3183.28H-40.169Z" transform="translate(0 -190.656)"/>
  <g id="ValidLeftFIXED">
    <path id="Valid03" class="cls-2" d="M1273.75,1291.47h116.03c146.46,0,146.32,184.54.21,184.54-95.52,0-87.6,85.38-87.6,87.59" transform="translate(0 -190.656)"/>
    <path id="Valid02" class="cls-3" d="M2049.76,1273.86c100.46,0,101.34-132.12-.26-132.12h-96.32" transform="translate(0 -190.656)"/>
    <path id="Valid01" class="cls-3" d="M517.4,1200.99c-128.283,0-125.968-158.3-.1-158.3,30.274,0,60.747-.05,60.747-0.05" transform="translate(0 -190.656)"/>
  </g>
  <g id="BiggersFIXED">
    <path id="Bigger_copy_12" data-name="Bigger copy 12" class="cls-4" d="M3066.17,755.18h95c61.1,0,58.97,84.266,0,84.266h-95.7C3006.73,839.446,3004.04,755.18,3066.17,755.18Z" transform="translate(0 -190.656)"/>
    <path id="Bigger_copy_11" data-name="Bigger copy 11" class="cls-4" d="M2896.1,1005.37h53.28c46.29,0,44.67,63.84,0,63.84h-53.81C2851.08,1069.21,2849.04,1005.37,2896.1,1005.37Z" transform="translate(0 -190.656)"/>
    <path id="Bigger_copy_10" data-name="Bigger copy 10" class="cls-4" d="M2632.7,858.317h75.9c70.75,0,68.28,97.574,0,97.574h-76.71C2563.88,955.891,2560.76,858.317,2632.7,858.317Z" transform="translate(0 -190.656)"/>
    <path id="Bigger_copy_9" data-name="Bigger copy 9" class="cls-4" d="M2279.9,495.948h93.41c82.73,0,79.83,114.084,0,114.084h-94.36C2199.43,610.032,2195.78,495.948,2279.9,495.948Z" transform="translate(0 -190.656)"/>
    <path id="Bigger_copy_9-2" data-name="Bigger copy 9" class="cls-4" d="M2096.3,818.963h109.09c75.51,0,72.87,104.139,0,104.139H2095.43C2022.85,923.1,2019.52,818.963,2096.3,818.963Z" transform="translate(0 -190.656)"/>
    <path id="Bigger_copy_2" data-name="Bigger copy 2" class="cls-4" d="M1889.15,1156.78H2051c75.46,0,72.82,104.07,0,104.07H1888.28C1815.75,1260.85,1812.42,1156.78,1889.15,1156.78Z" transform="translate(0 -190.656)"/>
    <path id="Bigger_copy_6" data-name="Bigger copy 6" class="cls-4" d="M1571.28,842.729h200.89c90.15,0,87,124.325,0,124.325H1570.25C1483.59,967.054,1479.62,842.729,1571.28,842.729Z" transform="translate(0 -190.656)"/>
    <path id="Bigger_copy_3" data-name="Bigger copy 3" class="cls-4" d="M1273.62,1324.55h128.66c89.04,0,85.93,122.81,0,122.81H1272.6C1187.01,1447.36,1183.08,1324.55,1273.62,1324.55Z" transform="translate(0 -190.656)"/>
    <path id="Bigger_copy_4" data-name="Bigger copy 4" class="cls-4" d="M1020.34,923.1h233.37c114.52,0,110.52,157.937,0,157.937H1019.03C908.945,1081.04,903.9,923.1,1020.34,923.1Z" transform="translate(0 -190.656)"/>
    <path id="Bigger_copy_6-2" data-name="Bigger copy 6" class="cls-4" d="M820.612,611.947H934.6c70.031,0,68.271,109.5,0,109.5H819.489C748.267,721.442,747.692,611.947,820.612,611.947Z" transform="translate(0 -190.656)"/>
    <path id="Bigger_copy_5" data-name="Bigger copy 5" class="cls-4" d="M509.709,1069.02H665.586c76.256,0,73.59,105.17,0,105.17H508.833C435.531,1174.19,432.172,1069.02,509.709,1069.02Z" transform="translate(0 -190.656)"/>
    <path id="Bigger_copy_7" data-name="Bigger copy 7" class="cls-4" d="M343.226,557.215h98.586c93.846,0,90.565,129.422,0,129.422H342.149C251.938,686.637,247.805,557.215,343.226,557.215Z" transform="translate(0 -190.656)"/>
    <path id="Bigger_copy_8" data-name="Bigger copy 8" class="cls-4" d="M241.579,217.5H347.114c73.558,0,70.986,101.443,0,101.443H240.735C170.027,318.945,166.786,217.5,241.579,217.5Z" transform="translate(0 -190.656)"/>
  </g>
  <g id="ValidLeftFIXED_RIGHT">
    <path id="Valid03-2" data-name="Valid03" class="cls-2" d="M5169.25,1292.47H5053.22c-146.46,0-146.32,184.54-.21,184.54,95.52,0,87.85,85.4,87.6,87.59" transform="translate(0 -190.656)"/>
    <path id="Valid02-2" data-name="Valid02" class="cls-3" d="M4393.24,1273.86c-100.46,0-101.34-132.12.26-132.12h96.32" transform="translate(0 -190.656)"/>
    <path id="Valid01-2" data-name="Valid01" class="cls-3" d="M5925.6,1200.99c128.29,0,125.97-158.3.11-158.3-30.28,0-60.75-.05-60.75-0.05" transform="translate(0 -190.656)"/>
  </g>
  <g id="BiggersFIXED_RIGHT">
    <path id="Bigger_copy_11-2" data-name="Bigger copy 11" class="cls-4" d="M3546.9,1005.37h-53.28c-46.29,0-44.67,63.84,0,63.84h53.81C3591.92,1069.21,3593.96,1005.37,3546.9,1005.37Z" transform="translate(0 -190.656)"/>
    <path id="Bigger_copy_10-2" data-name="Bigger copy 10" class="cls-4" d="M3810.3,858.317h-75.9c-70.75,0-68.28,97.574,0,97.574h76.71C3879.12,955.891,3882.24,858.317,3810.3,858.317Z" transform="translate(0 -190.656)"/>
    <path id="Bigger_copy_9-3" data-name="Bigger copy 9" class="cls-4" d="M4163.1,495.948h-93.41c-82.73,0-79.83,114.084,0,114.084h94.36C4243.57,610.032,4247.22,495.948,4163.1,495.948Z" transform="translate(0 -190.656)"/>
    <path id="Bigger_copy_9-4" data-name="Bigger copy 9" class="cls-4" d="M4346.7,818.963H4237.61c-75.51,0-72.87,104.139,0,104.139h109.96C4420.15,923.1,4423.48,818.963,4346.7,818.963Z" transform="translate(0 -190.656)"/>
    <path id="Bigger_copy_2-2" data-name="Bigger copy 2" class="cls-4" d="M4540.81,1155.86H4396.03c-77.09,0-74.39,106.3,0,106.3h145.66C4615.79,1262.16,4619.18,1155.86,4540.81,1155.86Z" transform="translate(0 -190.656)"/>
    <path id="Bigger_copy_6-3" data-name="Bigger copy 6" class="cls-4" d="M4871.72,842.729H4670.83c-90.15,0-87,124.325,0,124.325h201.92C4959.41,967.054,4963.38,842.729,4871.72,842.729Z" transform="translate(0 -190.656)"/>
    <path id="Bigger_copy_3-2" data-name="Bigger copy 3" class="cls-4" d="M5204.99,1312.3H5050.67c-106.82,0-103.08,147.31,0,147.31h155.55C5308.9,1459.61,5313.6,1312.3,5204.99,1312.3Z" transform="translate(0 -190.656)"/>
    <path id="Bigger_copy_4-2" data-name="Bigger copy 4" class="cls-4" d="M5422.66,923.1H5189.29c-114.52,0-110.52,157.937,0,157.937h234.68C5534.05,1081.04,5539.1,923.1,5422.66,923.1Z" transform="translate(0 -190.656)"/>
    <path id="Bigger_copy_6-4" data-name="Bigger copy 6" class="cls-4" d="M5622.39,611.947H5508.4c-70.03,0-68.27,109.5,0,109.5h115.11C5694.73,721.442,5695.31,611.947,5622.39,611.947Z" transform="translate(0 -190.656)"/>
    <path id="Bigger_copy_5-2" data-name="Bigger copy 5" class="cls-4" d="M5933.44,1063.52h-146.8c-86,0-83,118.61,0,118.61h147.79C6017.1,1182.13,6020.89,1063.52,5933.44,1063.52Z" transform="translate(0 -190.656)"/>
    <path id="Bigger_copy_7-2" data-name="Bigger copy 7" class="cls-4" d="M6099.77,557.215h-98.58c-93.85,0-90.57,129.422,0,129.422h99.66C6191.06,686.637,6195.2,557.215,6099.77,557.215Z" transform="translate(0 -190.656)"/>
    <path id="Bigger_copy_8-2" data-name="Bigger copy 8" class="cls-4" d="M6201.42,217.5H6095.89c-73.56,0-70.99,101.443,0,101.443h106.38C6272.97,318.945,6276.21,217.5,6201.42,217.5Z" transform="translate(0 -190.656)"/>
  </g>
</svg>
