<svg xmlns="http://www.w3.org/2000/svg" width="2427.28" height="913.932" viewBox="0 0 2427.28 913.932">
  <defs>
    <style>
      .cls-1 {
        fill: #ecc166;
      }

      .cls-1, .cls-2 {
        fill-rule: evenodd;
      }

      .cls-2 {
        fill: #fee7bb;
      }
    </style>
  </defs>
  <path id="Du_9_au_10_septembre_2022_copy" data-name="Du 9 au 10 septembre 2022 copy" class="cls-1" d="M502.492,1233.81q32.277,0,51.672-18.6,19.393-18.615,19.394-49.77,0-65.01-71.066-65.02H455.239v133.39h47.253Zm-2.511-108.92q19.9,0,30.928,10.93t11.023,29.99q0,20.19-11.116,31.91t-30.649,11.72H485.284v-84.55h14.7Zm183.337,13.67h-29.3v54.51q0,9.48-4.744,15.02a15.83,15.83,0,0,1-12.65,5.54q-16,0-16-20.19v-54.88h-29.3v57.48q0,40.1,33.114,40.1,18.231,0,29.115-16.84h0.465v14.51h29.3v-95.25Zm162.828-4.28a57.221,57.221,0,0,0-9.3-19.63,41.158,41.158,0,0,0-14.743-12.23,43.891,43.891,0,0,0-19.534-4.23,51.9,51.9,0,0,0-19.162,3.4,42.475,42.475,0,0,0-14.836,9.62,43.88,43.88,0,0,0-9.627,14.89,51.352,51.352,0,0,0-3.442,19.16,46.592,46.592,0,0,0,2.837,16.55,38.843,38.843,0,0,0,7.907,12.98,36.177,36.177,0,0,0,12,8.51,36.838,36.838,0,0,0,15.115,3.07q18.045,0,26.882-13.11l0.558,0.18q-0.093,19.53-8.65,29.86t-23.72,10.33q-14.79,0-25.3-6.89v24.19q11.811,5.205,28.184,5.21a56.017,56.017,0,0,0,24.463-5.17,50.284,50.284,0,0,0,18.278-14.83,68.129,68.129,0,0,0,11.395-23.68,118.262,118.262,0,0,0,3.907-31.76A99.477,99.477,0,0,0,846.146,1134.28Zm-27.72,18.42a18.742,18.742,0,0,1-3.534,6.14,17.239,17.239,0,0,1-5.442,4.14,16.023,16.023,0,0,1-7.069,1.53,18.64,18.64,0,0,1-7.441-1.44,15.393,15.393,0,0,1-5.721-4.23,19.74,19.74,0,0,1-3.674-6.84,30.155,30.155,0,0,1-1.3-9.25,28.962,28.962,0,0,1,1.3-8.84,21.724,21.724,0,0,1,3.627-7.02,17.108,17.108,0,0,1,5.535-4.61,15.018,15.018,0,0,1,7.023-1.67,14.6,14.6,0,0,1,7.348,1.9,17.778,17.778,0,0,1,5.674,5.17,25.4,25.4,0,0,1,3.628,7.76,34.6,34.6,0,0,1,1.3,9.63A22.627,22.627,0,0,1,818.426,1152.7ZM1002,1176.88q0-40.65-40.745-40.65a88.4,88.4,0,0,0-19.394,2.42,73.59,73.59,0,0,0-16.79,5.58v22.14q15.348-10.14,32.37-10.14,16.929,0,16.929,15.63l-25.858,3.44q-32.838,4.275-32.836,32,0,13.11,7.953,20.98t21.813,7.86q18.787,0,28.37-16h0.372v13.67H1002v-56.93Zm-32.839,32.7a17.415,17.415,0,0,1-13.487,5.72q-5.953,0-9.441-3.21a10.678,10.678,0,0,1-3.489-8.23q0-11.07,14.325-12.93l17.3-2.23v6.41Q974.37,1203.855,969.161,1209.58Zm146.6-71.02h-29.3v54.51q0,9.48-4.75,15.02a15.825,15.825,0,0,1-12.65,5.54q-15.99,0-16-20.19v-54.88h-29.3v57.48q0,40.1,33.12,40.1,18.225,0,29.11-16.84h0.47v14.51h29.3v-95.25Zm124.55-41.11a124.161,124.161,0,0,1-39.91,19.99v24.75a55.43,55.43,0,0,0,7.91-1.54,62.472,62.472,0,0,0,7.72-2.6,58.642,58.642,0,0,0,7.02-3.44,34.754,34.754,0,0,0,5.72-4.05v103.25h29.3V1097.45h-17.76Zm140.41,120.64q12.69-18.045,12.69-51.9,0-68-46.5-68-24.465,0-37.35,18.19t-12.88,52.88q0,66.87,47.62,66.88Q1368.015,1236.14,1380.72,1218.09Zm-17.26-50.97q0,46.5-18.23,46.51-18.69,0-18.7-45.12,0-47.9,19.07-47.9,17.865,0,17.86,46.51h0Zm124.18,69.02a77.631,77.631,0,0,0,16.51-1.73,44.177,44.177,0,0,0,14.05-5.48,29.41,29.41,0,0,0,9.76-9.77,30.448,30.448,0,0,0,1.86-24.88,22.133,22.133,0,0,0-5.2-7.63,34.029,34.029,0,0,0-8.14-5.67,85.322,85.322,0,0,0-10.61-4.47q-3.255-1.11-6.55-2.18a43.058,43.058,0,0,1-6-2.42,14.63,14.63,0,0,1-4.38-3.21,6.475,6.475,0,0,1-1.67-4.47,5.771,5.771,0,0,1,1.12-3.49,8.208,8.208,0,0,1,3.07-2.51,18.226,18.226,0,0,1,4.51-1.49,27.764,27.764,0,0,1,5.44-.51,50.694,50.694,0,0,1,12.51,1.63,46.5,46.5,0,0,1,11.95,4.88v-22.69a95.726,95.726,0,0,0-12.83-2.84,86.719,86.719,0,0,0-12.84-.98,69.145,69.145,0,0,0-15.58,1.73,42.265,42.265,0,0,0-13.3,5.39,28.44,28.44,0,0,0-9.3,9.44,26.092,26.092,0,0,0-3.49,13.77,30.177,30.177,0,0,0,1.53,10.14,22.337,22.337,0,0,0,4.47,7.53,28.808,28.808,0,0,0,7.25,5.72,70.551,70.551,0,0,0,10,4.61c2.36,0.93,4.81,1.76,7.35,2.51a59.082,59.082,0,0,1,7.02,2.51,19.136,19.136,0,0,1,5.26,3.26,6.031,6.031,0,0,1,2.04,4.65q0,4.365-4.51,6.51t-12.32,2.14a48.218,48.218,0,0,1-13.63-2.14,62.69,62.69,0,0,1-14.46-6.51v23.81a85.2,85.2,0,0,0,29.11,4.84h0Zm146.5-53.95q0-21.21-11.39-33.58t-32.23-12.38q-20.1,0-33.86,13.86t-13.77,37.58q0,22.89,12.75,35.68,12.735,12.78,35.81,12.79,21.12,0,34.32-7.07v-21.21q-11.91,7.44-27.62,7.44-24.66,0-26.14-20.74h62.13v-12.37Zm-62.32-5.68a26.616,26.616,0,0,1,6.28-14.6q5.16-5.865,12.23-5.86,16.56,0,16.56,20.46h-35.07Zm135.81,59.63q19.53,0,31.3-14.42t11.77-38.23q0-21.855-10.1-34.56-10.1-12.69-28.6-12.7-19.725,0-30.6,16.65h-0.38v-14.32h-29.39v139.06h29.39v-54.88h0.38q9.015,13.4,26.23,13.4h0Zm-21.35-70.56a18.336,18.336,0,0,1,14.74-6.84q19.545,0,19.54,25.12,0,14.235-5.54,22t-15.58,7.77a16.941,16.941,0,0,1-13.67-6.24q-5.2-6.225-5.21-16.09v-7.63Q1680.56,1172.42,1686.28,1165.58Zm141.06,45.35a19.911,19.911,0,0,1-9.58,2.7q-11.82,0-11.81-14.89v-38.51h21.39v-21.67h-21.39v-28.93l-29.3,8.37v20.56h-15.44v21.67h15.44v43.63q0,32.28,31.06,32.28,13.125,0,19.63-3.45v-21.76Zm101.39-28.74q0-21.21-11.39-33.58t-32.23-12.38q-20.1,0-33.86,13.86t-13.77,37.58q0,22.89,12.74,35.68t35.82,12.79q21.105,0,34.32-7.07v-21.21q-11.91,7.44-27.63,7.44-24.645,0-26.13-20.74h62.13v-12.37Zm-62.32-5.68a26.545,26.545,0,0,1,6.28-14.6q5.16-5.865,12.23-5.86,16.56,0,16.56,20.46h-35.07Zm231.05-1.95q0-38.325-31.06-38.33-21.12,0-32,17.77-7.44-17.76-27.63-17.77a36.086,36.086,0,0,0-30.79,17.21h-0.37v-14.88h-29.39v95.25h29.39v-52.93q0-10.23,4.51-16.18a14.373,14.373,0,0,1,12.05-5.96q14.97,0,14.97,20.19v54.88h29.4v-53.3q0-9.3,4.56-15.53a13.99,13.99,0,0,1,11.81-6.24q15.255,0,15.25,20.75v54.32h29.3v-59.25Zm79.63,61.58q19.44,0,31.07-14.42t11.62-38.23q0-21.96-9.95-34.61t-28.37-12.65q-20.085,0-30.98,16.65h-0.37V1092.8h-29.39v141.01h29.39v-11.07h0.37q9.03,13.4,26.61,13.4h0Zm-21.63-70.79a18.707,18.707,0,0,1,14.65-6.61q9.39,0,14.47,6.66,5.055,6.645,5.07,18.46,0,14.235-5.54,22t-15.58,7.77a17.245,17.245,0,0,1-13.58-6.05q-5.31-6.045-5.3-15.26v-9.76Q2149.65,1171.955,2155.46,1165.35ZM2300.99,1138a19.065,19.065,0,0,0-7.26-1.11q-18.135,0-25.11,19.34h-0.38v-17.67h-29.39v95.25h29.39v-45.49q0-12.09,5.4-19.11t14.98-7.02a25.54,25.54,0,0,1,12.37,2.88V1138Zm98.5,44.19q0-21.21-11.39-33.58t-32.23-12.38q-20.1,0-33.86,13.86t-13.77,37.58q0,22.89,12.75,35.68t35.81,12.79q21.1,0,34.32-7.07v-21.21q-11.91,7.44-27.63,7.44-24.645,0-26.13-20.74h62.13v-12.37Zm-62.32-5.68a26.616,26.616,0,0,1,6.28-14.6q5.16-5.865,12.23-5.86,16.56,0,16.56,20.46h-35.07Zm161.76,27.44a33.482,33.482,0,0,1,5.02-5.91,81.337,81.337,0,0,1,7.3-6.13q4.14-3.12,8.61-6.28,6.6-4.56,12.74-9.44a68.5,68.5,0,0,0,10.84-10.75,50.089,50.089,0,0,0,7.53-13.02,44.193,44.193,0,0,0,2.84-16.37,40.365,40.365,0,0,0-2.93-15.67,32.287,32.287,0,0,0-8.51-11.96,38.658,38.658,0,0,0-13.63-7.58,57.887,57.887,0,0,0-18.18-2.65,70.649,70.649,0,0,0-39.26,11.26v25.85q15.72-13.665,32.93-13.67,9.96,0,14.79,4.37t4.84,12.93a22.686,22.686,0,0,1-1.49,8.23,28.788,28.788,0,0,1-4.51,7.63,59.155,59.155,0,0,1-7.44,7.58q-4.425,3.825-10.28,8-5.58,4.005-11.77,8.98a75.151,75.151,0,0,0-11.39,11.44,60.673,60.673,0,0,0-8.65,14.6,46.673,46.673,0,0,0-3.45,18.37v10.05h88.74v-24.37h-56.55A10.187,10.187,0,0,1,2498.93,1203.95Zm158.27,14.14q12.69-18.045,12.69-51.9,0-68-46.5-68-24.465,0-37.35,18.19t-12.88,52.88q0,66.87,47.62,66.88Q2644.5,1236.14,2657.2,1218.09Zm-17.26-50.97q0,46.5-18.23,46.51-18.69,0-18.69-45.12,0-47.9,19.06-47.9,17.865,0,17.86,46.51h0Zm78.14,36.83a33.482,33.482,0,0,1,5.02-5.91,81.337,81.337,0,0,1,7.3-6.13q4.14-3.12,8.61-6.28,6.6-4.56,12.74-9.44a68.927,68.927,0,0,0,10.84-10.75,50.089,50.089,0,0,0,7.53-13.02,44.193,44.193,0,0,0,2.84-16.37,40.365,40.365,0,0,0-2.93-15.67,32.4,32.4,0,0,0-8.51-11.96,38.658,38.658,0,0,0-13.63-7.58,57.887,57.887,0,0,0-18.18-2.65,70.649,70.649,0,0,0-39.26,11.26v25.85q15.72-13.665,32.93-13.67,9.945,0,14.79,4.37t4.84,12.93a22.686,22.686,0,0,1-1.49,8.23,28.788,28.788,0,0,1-4.51,7.63,59.155,59.155,0,0,1-7.44,7.58q-4.425,3.825-10.28,8-5.58,4.005-11.77,8.98a75.151,75.151,0,0,0-11.39,11.44,60.673,60.673,0,0,0-8.65,14.6,46.673,46.673,0,0,0-3.45,18.37v10.05h88.74v-24.37h-56.55A10.187,10.187,0,0,1,2718.08,1203.95Zm109.57,0a33.573,33.573,0,0,1,5.03-5.91,79.953,79.953,0,0,1,7.3-6.13q4.14-3.12,8.6-6.28,6.6-4.56,12.75-9.44a68.433,68.433,0,0,0,10.83-10.75,50.4,50.4,0,0,0,7.54-13.02,44.2,44.2,0,0,0,2.83-16.37,40.183,40.183,0,0,0-2.93-15.67,32.287,32.287,0,0,0-8.51-11.96,38.57,38.57,0,0,0-13.63-7.58,57.842,57.842,0,0,0-18.18-2.65,70.616,70.616,0,0,0-39.25,11.26v25.85q15.72-13.665,32.92-13.67,9.96,0,14.79,4.37,4.845,4.38,4.84,12.93a22.686,22.686,0,0,1-1.49,8.23,28.521,28.521,0,0,1-4.51,7.63,58.5,58.5,0,0,1-7.44,7.58q-4.425,3.825-10.28,8-5.58,4.005-11.76,8.98a74.756,74.756,0,0,0-11.4,11.44,61,61,0,0,0-8.65,14.6,46.673,46.673,0,0,0-3.44,18.37v10.05h88.74v-24.37h-56.56A10.187,10.187,0,0,1,2827.65,1203.95Z" transform="translate(-455.25 -363.688)"/>
  <path id="MoonAlps3_Shape_1" data-name="MoonAlps3_Shape 1" class="cls-2" d="M880.961,513.721L804.968,397.7v1L531.992,813.782H473v-2L769.971,363.69h71.993l67.994,104.021h1L979.952,363.69h72l229.98,350.072s-12.11,12.331-18,18c-5.27,5.067-17,14-17,14l-2-1L1016.95,399.7h-2L854.963,642.747H795.968m1430.872-22H2028.86L1926.87,823.784h-56v-1l228.98-450.092h69l115.99,227.047V709.761L2134.85,414.7l-1,2-78.99,154.032h147.98Zm68.99-163.034h50V668.753c0,31.052-5.9,69.956,14.17,88.247,15.57,14.182,31.74,17.492,58.54,17.759,17.91,0.178,37.8.107,59.28,0.015v49.01c-26.32.227-49.14-.594-69.25-0.594-41.08,0-71.28-15.524-91.57-42.19-27-35.5-21.17-70.058-21.17-120.249V457.709Zm121.99,0S2531.01,458,2575,458c43.74,0,57.8,8.711,57.8,8.711s-13.58,9.5-22.8,19.289c-7.74,8.212-15.19,21.72-15.19,21.72h-58V615.742c17.94,0.044,35.77.258,51.19,0.258,22.79,0,40.86-7.9,51.8-23.263a66.669,66.669,0,0,0,9-19c0.67-8,1.34-14,2-22,4.96-15.859,20.84-30.44,39-33.006,3.62,9.315,7.99,22.176,9.2,33.278,2.98,27.294-6.45,46.073-15.2,61.741-15.73,28.184-41.04,42.95-76.99,51.011h-70V823.784h-48.99V507.72h-70V457.709Zm421.97,1V507.72H2730.8c-26.56,0-47.29-2.067-66,9-12.02,7.113-21.01,21.8-25,37.008v18A52.917,52.917,0,0,1,2601,605c-6.38-13.464-10.19-32.743-10.19-41.269-0.01-24.267,5.03-38.53,14-53.011,13.7-22.135,32.23-38.213,58.99-47.01,18.66-6.133,43.47-5,68-5h107.99ZM1278.93,488.716c-5.06,3.33-25.05,18.981-35.93,35.284-17.37-12.176-52.44-16.706-81.06-13.28-27.62-43.387-14.28-19.552-29-43.009C1204.53,452.333,1246.99,468.861,1278.93,488.716ZM1525.9,460.71h52l193.98,294.06V460.71h50V823.784h-65L1576.9,549.728h-1V823.784h-50V765.773h-1v2c-11.05,9.223-19.05,17.25-29.99,25-38.85,27.54-101.53,37.684-148.99,24-12.62-3.636-36.21-12.122-48-22,10.51-7.983,28.07-22.653,36-36.007,11.79,4.955,20.42,10.041,38,13,18.81,3.17,42.96,1.837,57.99-3,42.48-13.674,69.25-37.663,85.99-77.016,11.11-26.118,14.2-62.377,4-91.018a161.23,161.23,0,0,0-18.99-37.008c-14.3-20.009-37.85-38.514-63-47.01-81.03-27.371-152.11,27.4-169.98,84.018-11.4,41.261-4,66.013-4,66.013l-46-69.014s7.6-30.57,26.07-57.738c17.19-25.3,45.19-48.255,65.92-60.286,8.53-4.951,17.36-6.167,27-10,26.93-10.707,73.78-14.008,104.99-4a222.943,222.943,0,0,1,65,33.007c6.87,5.089,11.9,13.149,18.99,18V460.71Zm-454.96,40.008c3.06,5.159,24.18,35.572,27,40.008-10.01,8.444-11.04,8.233-20,20-16.56,21.765-34.29,64.526-24.99,107.021,11.54,52.75,46.2,87.546,97.99,102.021,74.63,20.862,139.16-32.291,156.98-84.017,7.74-22.464,9.87-57.925,2-82.017-3.8-11.639-16-33.006-16-33.006s16.94-23.439,38-34.007c1.3,4.6,4.14,5.657,6,9,28.4,51.158,36.85,112.28,11,167.035-25.8,54.644-56.89,84.466-120.99,104.021-22.82,6.963-58.52,9.088-86.99,1-73.6-20.9-114.07-63.576-134.99-135.028-3.28-11.2-4-26.588-4-40.007-0.01-55.561,18.53-85.828,42-117.025C1049.33,518.562,1062.35,505.816,1070.94,500.718ZM2547.81,822.784v-49.01H2708.8c48.71,0,81.7,4.583,100.99-30.006,10.59-19,7.62-37.613-3-53.011-7.54-10.924-12.9-16.946-26.79-21.757-17.75-6.147-43.72-3.506-66-4-6.33-.14-16.67,0-23,0-21.52-1.531-35-9-35-9s14.39-8.622,24-18c5.72-5.58,13.48-15.823,14.8-21.258h63.34c17.68,0,54.51,3.678,80.86,35.258,23.62,28.306,25.78,49.895,25.78,64.762,0,29.189-6.5,42.627-17.99,59.013-15.48,22.059-35.39,37.162-65,45.009-21.57,5.715-53.05,2-77.99,2H2547.81ZM1879,831c22.55-.343,33.05,2.014,49.87,5.787V878.8h-2c-11.33-10.2-42.35-14.546-52-8-3.59,3.318-4.68,5.375-3,12,3.14,12.694,46.81,15.638,60,41.008A54.086,54.086,0,0,1,1938,948c0,11.864-5.36,20.837-11.13,28.816C1915.65,992.309,1888.82,998,1864,998c-20.68,0-34.97-6.2-43.12-8.182V943.809h1c5.63,8.093,47.36,25.577,58.12,12.191,10.05-13.7-12.08-20.788-20.13-24.193C1842.1,924.282,1819,914.477,1819,881,1819,844.946,1856.62,831.172,1879,831Zm396.84,2.786h50.99l-51.99,161.033h-56l-50.99-161.033h51.99L2248,951Zm-701.94,0h101.99v39.008h-52V899.8h48v39.008h-48v56.011H1573.9V833.786Zm123.99,0h101.99v39.008h-52v22h48v39.008h-48v22h55v39.008H1697.89V833.786Zm245.98,0h139.98v39.008h-45.99V994.819h-49V872.794h-44.99V833.786Zm157.98,0h50V994.819h-50V833.786Zm259.98,132.028-7,29h-53l56-161.033h59.99l1,3,51,158.032h-53l-7-29h-47.99Zm125.99-132.028h48.99V955.811h56v39.008H2487.82V833.786Zm-86.99,96.02-14-60.012-16,60.012h30Z" transform="translate(-455.25 -363.688)"/>
</svg>
