<svg xmlns="http://www.w3.org/2000/svg" width="2427.28" height="913.932" viewBox="0 0 2427.28 440.932">
  <defs>
    <style>
      .cls-2 {
        fill: #e86054;
      }
    </style>
  </defs>
  <path id="MoonAlps3_Shape_1" data-name="MoonAlps3_Shape 1" class="cls-2" d="M880.961,513.721L804.968,397.7v1L531.992,813.782H473v-2L769.971,363.69h71.993l67.994,104.021h1L979.952,363.69h72l229.98,350.072s-12.11,12.331-18,18c-5.27,5.067-17,14-17,14l-2-1L1016.95,399.7h-2L854.963,642.747H795.968m1430.872-22H2028.86L1926.87,823.784h-56v-1l228.98-450.092h69l115.99,227.047V709.761L2134.85,414.7l-1,2-78.99,154.032h147.98Zm68.99-163.034h50V668.753c0,31.052-5.9,69.956,14.17,88.247,15.57,14.182,31.74,17.492,58.54,17.759,17.91,0.178,37.8.107,59.28,0.015v49.01c-26.32.227-49.14-.594-69.25-0.594-41.08,0-71.28-15.524-91.57-42.19-27-35.5-21.17-70.058-21.17-120.249V457.709Zm121.99,0S2531.01,458,2575,458c43.74,0,57.8,8.711,57.8,8.711s-13.58,9.5-22.8,19.289c-7.74,8.212-15.19,21.72-15.19,21.72h-58V615.742c17.94,0.044,35.77.258,51.19,0.258,22.79,0,40.86-7.9,51.8-23.263a66.669,66.669,0,0,0,9-19c0.67-8,1.34-14,2-22,4.96-15.859,20.84-30.44,39-33.006,3.62,9.315,7.99,22.176,9.2,33.278,2.98,27.294-6.45,46.073-15.2,61.741-15.73,28.184-41.04,42.95-76.99,51.011h-70V823.784h-48.99V507.72h-70V457.709Zm421.97,1V507.72H2730.8c-26.56,0-47.29-2.067-66,9-12.02,7.113-21.01,21.8-25,37.008v18A52.917,52.917,0,0,1,2601,605c-6.38-13.464-10.19-32.743-10.19-41.269-0.01-24.267,5.03-38.53,14-53.011,13.7-22.135,32.23-38.213,58.99-47.01,18.66-6.133,43.47-5,68-5h107.99ZM1278.93,488.716c-5.06,3.33-25.05,18.981-35.93,35.284-17.37-12.176-52.44-16.706-81.06-13.28-27.62-43.387-14.28-19.552-29-43.009C1204.53,452.333,1246.99,468.861,1278.93,488.716ZM1525.9,460.71h52l193.98,294.06V460.71h50V823.784h-65L1576.9,549.728h-1V823.784h-50V765.773h-1v2c-11.05,9.223-19.05,17.25-29.99,25-38.85,27.54-101.53,37.684-148.99,24-12.62-3.636-36.21-12.122-48-22,10.51-7.983,28.07-22.653,36-36.007,11.79,4.955,20.42,10.041,38,13,18.81,3.17,42.96,1.837,57.99-3,42.48-13.674,69.25-37.663,85.99-77.016,11.11-26.118,14.2-62.377,4-91.018a161.23,161.23,0,0,0-18.99-37.008c-14.3-20.009-37.85-38.514-63-47.01-81.03-27.371-152.11,27.4-169.98,84.018-11.4,41.261-4,66.013-4,66.013l-46-69.014s7.6-30.57,26.07-57.738c17.19-25.3,45.19-48.255,65.92-60.286,8.53-4.951,17.36-6.167,27-10,26.93-10.707,73.78-14.008,104.99-4a222.943,222.943,0,0,1,65,33.007c6.87,5.089,11.9,13.149,18.99,18V460.71Zm-454.96,40.008c3.06,5.159,24.18,35.572,27,40.008-10.01,8.444-11.04,8.233-20,20-16.56,21.765-34.29,64.526-24.99,107.021,11.54,52.75,46.2,87.546,97.99,102.021,74.63,20.862,139.16-32.291,156.98-84.017,7.74-22.464,9.87-57.925,2-82.017-3.8-11.639-16-33.006-16-33.006s16.94-23.439,38-34.007c1.3,4.6,4.14,5.657,6,9,28.4,51.158,36.85,112.28,11,167.035-25.8,54.644-56.89,84.466-120.99,104.021-22.82,6.963-58.52,9.088-86.99,1-73.6-20.9-114.07-63.576-134.99-135.028-3.28-11.2-4-26.588-4-40.007-0.01-55.561,18.53-85.828,42-117.025C1049.33,518.562,1062.35,505.816,1070.94,500.718ZM2547.81,822.784v-49.01H2708.8c48.71,0,81.7,4.583,100.99-30.006,10.59-19,7.62-37.613-3-53.011-7.54-10.924-12.9-16.946-26.79-21.757-17.75-6.147-43.72-3.506-66-4-6.33-.14-16.67,0-23,0-21.52-1.531-35-9-35-9s14.39-8.622,24-18c5.72-5.58,13.48-15.823,14.8-21.258h63.34c17.68,0,54.51,3.678,80.86,35.258,23.62,28.306,25.78,49.895,25.78,64.762,0,29.189-6.5,42.627-17.99,59.013-15.48,22.059-35.39,37.162-65,45.009-21.57,5.715-53.05,2-77.99,2H2547.81ZM1879,831c22.55-.343,33.05,2.014,49.87,5.787V878.8h-2c-11.33-10.2-42.35-14.546-52-8-3.59,3.318-4.68,5.375-3,12,3.14,12.694,46.81,15.638,60,41.008A54.086,54.086,0,0,1,1938,948c0,11.864-5.36,20.837-11.13,28.816C1915.65,992.309,1888.82,998,1864,998c-20.68,0-34.97-6.2-43.12-8.182V943.809h1c5.63,8.093,47.36,25.577,58.12,12.191,10.05-13.7-12.08-20.788-20.13-24.193C1842.1,924.282,1819,914.477,1819,881,1819,844.946,1856.62,831.172,1879,831Zm396.84,2.786h50.99l-51.99,161.033h-56l-50.99-161.033h51.99L2248,951Zm-701.94,0h101.99v39.008h-52V899.8h48v39.008h-48v56.011H1573.9V833.786Zm123.99,0h101.99v39.008h-52v22h48v39.008h-48v22h55v39.008H1697.89V833.786Zm245.98,0h139.98v39.008h-45.99V994.819h-49V872.794h-44.99V833.786Zm157.98,0h50V994.819h-50V833.786Zm259.98,132.028-7,29h-53l56-161.033h59.99l1,3,51,158.032h-53l-7-29h-47.99Zm125.99-132.028h48.99V955.811h56v39.008H2487.82V833.786Zm-86.99,96.02-14-60.012-16,60.012h30Z" transform="translate(-455.25 -363.688)"/>
</svg>
