<?xml version="1.0" standalone="no"?>
<!DOCTYPE svg PUBLIC "-//W3C//DTD SVG 1.1//EN" "http://www.w3.org/Graphics/SVG/1.1/DTD/svg11.dtd">
<svg xmlns="http://www.w3.org/2000/svg" viewBox="0 0 453.54 453.54" width="453.5400085449219" height="453.5400085449219">
  <defs>
    <style>
      .cls-1 {
        fill: #fff;
      }

      .cls-2 {
        isolation: isolate;
      }
    </style>
  </defs>
  <g id="MoonAlps3_Shape_wSTROKE" class="cls-2">
    <path class="cls-1" d="M284.58,232.47c-2.37,3.83-3.71,7.61-3.7,14.03,0,2.26,1.01,7.36,2.7,10.92,4.78-1.04,8.59-4.31,10.27-8.8v-4.76c1.06-4.03,3.43-7.91,6.62-9.79,4.95-2.93,10.44-2.38,17.47-2.38h28.85v-12.97h-28.58c-6.49,0-13.06-.3-18,1.32-7.08,2.33-11.99,6.58-15.61,12.44Zm-30.96,82.86h12.97v-42.09h18.52c9.52-2.13,16.21-6.04,20.38-13.5,2.31-4.15,4.81-9.12,4.02-16.34-.32-2.94-1.48-6.34-2.44-8.81-4.81,.68-9.01,4.54-10.32,8.74-.18,2.12-.35,3.71-.53,5.82-.43,1.62-1.44,3.71-2.38,5.03-2.9,4.07-7.68,6.16-13.71,6.16-4.08,0-8.8-.06-13.55-.07v-28.59h15.35s1.97-3.57,4.02-5.75c2.44-2.59,6.04-5.11,6.04-5.11,0,0-3.72-2.31-15.3-2.31-11.64,0-41.6-.08-41.6-.08v13.24h18.52v83.65Zm-121.47-53.74h52.4l-6.35-13.24h-39.17l20.91-40.77,.26-.53,39.7,78.09v-29.12l-30.7-60.09h-18.26l-60.6,119.12v.26h14.82l26.99-53.74Zm103.14,40.76c-7.09-.07-11.37-.95-15.49-4.7-5.31-4.84-3.75-15.14-3.75-23.36v-55.86h-13.23v53.74c0,13.28-1.54,22.43,5.6,31.83,5.37,7.06,13.36,11.17,24.24,11.17,5.32,0,11.36,.22,18.33,.16v-12.97c-5.69,.02-10.95,.04-15.69,0Zm111.28-32.49c-6.97-8.36-16.72-9.33-21.4-9.33h-16.76c-.35,1.44-2.4,4.15-3.92,5.63-2.54,2.48-6.35,4.76-6.35,4.76,0,0,3.57,1.98,9.26,2.38,1.68,0,4.41-.04,6.09,0,5.9,.13,12.77-.57,17.47,1.06,3.68,1.27,5.1,2.87,7.09,5.76,2.81,4.08,3.6,9,.79,14.03-5.1,9.15-13.84,7.94-26.73,7.94h-42.61v12.97h41.28c6.6,0,14.93,.98,20.64-.53,7.84-2.08,13.11-6.07,17.2-11.91,3.04-4.34,4.76-7.89,4.76-15.62,0-3.93-.57-9.65-6.82-17.14Z"/>
    <path class="cls-1" d="M178.36,348.87h7.91v-6.04h-7.91v-3.41h8.57v-6.04h-16.81v24.93h17.31v-6.04h-9.06v-3.41Zm-28.68,9.44h8.24v-8.67h7.91v-6.04h-7.91v-4.18h8.57v-6.04h-16.81v24.93Zm49.12-17.34c-.28-1.03-.1-1.34,.49-1.86,1.59-1.01,6.7-.34,8.57,1.24h.33v-6.5c-2.77-.58-4.5-.95-8.22-.9-3.69,.03-9.89,2.16-9.89,7.74,0,5.18,3.81,6.7,6.74,7.86,1.33,.53,4.97,1.62,3.32,3.75-1.77,2.07-8.65-.63-9.58-1.89h-.16v7.12c1.34,.31,3.7,1.27,7.11,1.27,4.09,0,8.51-.88,10.36-3.28,.95-1.24,1.84-2.62,1.84-4.46,0-1.35-.43-2.7-1.01-3.75-2.17-3.93-9.37-4.38-9.89-6.35Zm89.99-7.59h-9.89l-9.23,24.93h8.74l1.15-4.49h7.91l1.15,4.49h8.74l-8.41-24.46-.16-.46Zm-7.75,14.86l2.64-9.29,2.31,9.29h-4.94Zm27.36-14.86h-8.08v24.93h17.31v-6.04h-9.23v-18.89Zm-97.74,6.04h7.42v18.89h8.08v-18.89h7.58v-6.04h-23.07v6.04Zm54.72-6.04l-4.59,18.14-4.64-18.14h-8.57s8.41,24.93,8.41,24.93h9.23l8.57-24.93h-8.41Zm-28.68,24.93h8.24v-24.93h-8.24v24.93Z"/>
    <path class="cls-1" d="M180.46,90.72l60.34,91.33,.53,.26s3.1-2.36,4.5-3.71c1.56-1.5,4.76-4.76,4.76-4.76l-60.87-92.65h-19.05l-18.26,27.53h-.26l-18-27.53h-19.05L36.5,199.79v.53h15.61L124.36,90.46v-.26l20.11,30.71s-22.49,33.97-22.49,34.15h15.61l42.34-64.33h.53Zm87.86,82.86c6.84-14.49,4.61-30.67-2.91-44.21-.49-.89-1.24-1.17-1.59-2.38-5.57,2.8-10.06,9-10.06,9,0,0,3.23,5.66,4.23,8.74,2.08,6.38,1.52,15.76-.53,21.71-4.72,13.69-21.8,27.76-41.55,22.24-13.71-3.83-22.88-13.04-25.93-27-2.46-11.25,2.23-22.56,6.62-28.32,2.37-3.12,2.64-3.06,5.29-5.29-.75-1.17-6.34-9.22-7.15-10.59-2.27,1.35-5.72,4.72-7.15,6.62-6.21,8.26-11.12,16.27-11.11,30.97,0,3.55,.19,7.63,1.06,10.59,5.54,18.91,16.25,30.2,35.73,35.74,7.54,2.14,16.98,1.58,23.02-.26,16.96-5.18,25.19-13.07,32.02-27.53Zm60.07,29.38v-72.53h.26l47.64,72.53h17.2V106.87h-13.23v77.83l-51.34-77.83h-13.76v14.82c-1.88-1.28-3.21-3.42-5.03-4.76-4.96-3.67-10.68-6.65-17.2-8.74-8.26-2.65-20.66-1.77-27.79,1.06-2.55,1.02-4.89,1.34-7.15,2.65-5.49,3.18-12.9,9.26-17.45,15.96-4.89,7.19-6.9,15.28-6.9,15.28l12.17,18.27s-1.96-6.55,1.06-17.47c4.73-14.98,23.54-29.48,44.99-22.24,6.66,2.25,12.89,7.15,16.67,12.44,1.96,2.74,3.86,6.5,5.03,9.79,2.7,7.58,1.88,17.18-1.06,24.09-4.43,10.42-11.52,16.76-22.76,20.38-3.98,1.28-10.37,1.63-15.35,.79-4.65-.78-6.94-2.13-10.06-3.44-2.1,3.53-6.75,7.42-9.53,9.53,3.12,2.62,9.36,4.86,12.7,5.82,12.56,3.62,29.15,.94,39.43-6.35,2.9-2.05,5.01-4.18,7.94-6.62v-.53h.26v15.35h13.23Zm-88.11-79.34c2.88-4.31,8.17-8.46,9.51-9.34-8.45-5.25-19.69-9.63-38.64-5.56,3.9,6.21,.36-.1,7.67,11.38,7.57-.91,16.86,.29,21.45,3.51Z"/>
  </g>
</svg>