<svg id="Lone_Placed" xmlns="http://www.w3.org/2000/svg" viewBox="0 0 2442.41 2108.722" fill="current" stroke="current">
  <defs>
    <style>
      .cls-1, .cls-2 {
        stroke-linecap: round;
        stroke-width: 50px;
        fill-rule: evenodd;
      }

      .cls-1 {
        stroke-linejoin: round;
      }
    </style>
  </defs>
  <path id="Lone04" class="cls-1" d="M970,1294.67c0.29-53.64.951-105.76-72.083-105.76-1.187,0-35.97-.04-37.2-0.04-116.669,0-123.73-184.73-.081-184.73h58.243c151.855,0,151.325-209.461,0-209.461H758.267c-182.528,0-188.9-253.685,0-253.685h41.7c122.588,0,124.27-165.241-5.818-165.241H380.039c-130.1,0-127.961,167.058,1.987,167.058h28.6c151.253,0,144.629,157.872,4.2,157.872-1.386,0-69.937.061-71.349,0.061-172.33,0-172.669,202.7,0,202.7,4.973,0,62.612-.091,67.947-0.091,74.509,0,75.872,112.466,0,112.466H164.192c-145.486,0-150.326,192.3,0,192.3H419.333c140.061,0,129.331,87.38,129.331,143.01" transform="translate(-28.25 -49.438)"/>
  <path id="Lone03" class="cls-1" d="M1229.95,2067.27c0-31.48,20.39-146.12-125.66-146.12s-149.995-252.21.4-252.21l113.93-.01c99.52,0,100.07-153.5.26-153.5-96.91,0-93.09-155.78,0-155.78,141.62,0,47.76-.08,169.55-0.08,124.62,0,128.54-219.36-3.43-219.36-101.32,0-104.31-168.775,0-168.775h310.52c131.99,0,135.58,184.4,2.06,184.4-15.32,0,3.96.51-18.88,0.51-137.66,0-132.75,238.14,0,238.14h98.19c118.26,0,122.07,199.7,0,199.7h-38.11c-66.66,0-85.49,52.13-85.49,105.4v10.77c0,58.32,31.78,100.61,86.52,100.61,2.88,0,104.6.11,107.4,0.11,98.53,0,103.17,165.06-.01,165.06-2.8,0-81.85.11-84.73,0.11-143.39,0-122.57,122.63-122.57,156.89" transform="translate(-28.25 -49.438)"/>
  <path id="Lone01" class="cls-2" d="M1715.6,610.69c-105.19,0-109.98-135-2.78-135h11.1c125.37,0,13.92-129.5,121.36-129.5,1.33,0,78.56-.1,79.96-0.1,106.22,0,102.53-140.892-.06-140.892-82.38,0-82.05-130.746.06-130.746h223.58c92.36,0,88.42,130.805-3.85,130.805-101.84,0-94.85,140.833,0,140.833h125.81c142.81,0,140.41,183.994,0,183.994h-15.42c-99.1,0-94.77,167.437,0,167.437h99.92c122.71,0,115.33,148.039,8.96,148.039-54.88,0-67.55,36.422-67.55,73.27" transform="translate(-28.25 -49.438)"/>
</svg>
