<?xml version="1.0" encoding="utf-8"?>
<!-- Generator: Adobe Illustrator 16.0.0, SVG Export Plug-In . SVG Version: 6.00 Build 0)  -->
<!DOCTYPE svg PUBLIC "-//W3C//DTD SVG 1.1//EN" "http://www.w3.org/Graphics/SVG/1.1/DTD/svg11.dtd">
<svg version="1.1" id="Layer_1" xmlns="http://www.w3.org/2000/svg" xmlns:xlink="http://www.w3.org/1999/xlink" x="0px" y="0px"
	 width="180px" height="22.307px" viewBox="0 0 180 22.307" enable-background="new 0 0 180 22.307" xml:space="preserve">
<g>
	<path fill="#1C1C1A" d="M5.306,4.704c1.174,0,2.143,0.137,2.903,0.413c0.761,0.276,1.363,0.634,1.806,1.075
		c0.441,0.443,0.75,0.933,0.923,1.469c0.174,0.536,0.26,1.065,0.26,1.587c0,1.015-0.199,1.864-0.597,2.544
		c-0.399,0.682-1.039,1.232-1.924,1.653l3.218,6.784h-2.87l-2.784-6.176c-0.13,0.014-0.269,0.025-0.413,0.032
		c-0.146,0.008-0.298,0.012-0.457,0.012H2.588v6.132H0V4.704H5.306z M5.501,11.879c0.595,0,1.088-0.062,1.479-0.186
		c0.391-0.123,0.698-0.296,0.924-0.521c0.223-0.226,0.383-0.497,0.478-0.815c0.094-0.32,0.142-0.675,0.142-1.067
		c0-0.362-0.055-0.691-0.164-0.989c-0.108-0.296-0.29-0.551-0.544-0.76c-0.253-0.21-0.591-0.373-1.01-0.49
		c-0.42-0.115-0.943-0.173-1.566-0.173H2.588v5.001H5.501z"/>
	<path fill="#1C1C1A" d="M16.288,7.161h-2.566V4.705h2.566V7.161z M16.244,20.229h-2.478V8.92h2.478V20.229z"/>
	<path fill="#1C1C1A" d="M29.051,16.271c-0.144,1.348-0.627,2.403-1.446,3.163c-0.818,0.763-1.989,1.143-3.512,1.143
		c-0.913,0-1.707-0.142-2.381-0.424c-0.674-0.283-1.237-0.686-1.684-1.207c-0.45-0.522-0.784-1.148-1.001-1.882
		c-0.218-0.731-0.327-1.546-0.327-2.446c0-0.897,0.124-1.72,0.371-2.468c0.246-0.745,0.605-1.384,1.076-1.914
		c0.471-0.528,1.047-0.938,1.729-1.229c0.682-0.289,1.457-0.435,2.328-0.435c0.796,0,1.471,0.105,2.021,0.315
		c0.552,0.211,1.008,0.494,1.37,0.848c0.362,0.355,0.646,0.765,0.849,1.229c0.202,0.465,0.348,0.951,0.434,1.458l-2.457,0.37
		c-0.117-0.639-0.337-1.167-0.664-1.588c-0.325-0.419-0.872-0.63-1.64-0.63c-0.551,0-1.008,0.117-1.371,0.348
		c-0.362,0.232-0.652,0.533-0.87,0.903c-0.217,0.369-0.372,0.793-0.467,1.271c-0.095,0.479-0.142,0.965-0.142,1.458
		c0,0.564,0.05,1.094,0.151,1.587c0.103,0.493,0.261,0.917,0.479,1.272c0.217,0.356,0.507,0.639,0.87,0.849
		c0.362,0.209,0.804,0.314,1.325,0.314c0.754,0,1.327-0.199,1.719-0.597c0.39-0.398,0.637-0.969,0.738-1.708H29.051z"/>
	<path fill="#1C1C1A" d="M33.834,4.704l-0.022,5.784c0.478-0.652,1.034-1.134,1.664-1.447c0.63-0.312,1.302-0.467,2.013-0.467
		c2.521,0,3.782,1.391,3.782,4.175v7.48h-2.478v-7.09c0-0.912-0.167-1.554-0.499-1.924c-0.332-0.369-0.822-0.555-1.471-0.555
		c-0.449,0-0.856,0.08-1.224,0.239c-0.368,0.16-0.682,0.37-0.942,0.63c-0.26,0.261-0.462,0.563-0.606,0.902
		c-0.144,0.342-0.216,0.693-0.216,1.055v6.742h-2.479V4.704H33.834z"/>
	<path fill="#1C1C1A" d="M50.838,18.75c-0.419,0.508-0.934,0.929-1.544,1.261c-0.609,0.334-1.347,0.501-2.218,0.501
		c-0.536,0-1.036-0.068-1.499-0.207c-0.465-0.138-0.867-0.343-1.208-0.619s-0.609-0.627-0.804-1.055
		c-0.196-0.428-0.294-0.931-0.294-1.511c0-0.784,0.173-1.417,0.522-1.903c0.347-0.486,0.8-0.866,1.358-1.142
		s1.186-0.468,1.882-0.576c0.694-0.109,1.391-0.176,2.086-0.208l1.674-0.085v-0.479c0-0.855-0.205-1.446-0.619-1.771
		c-0.413-0.326-0.953-0.49-1.619-0.49c-0.77,0-1.338,0.131-1.708,0.392c-0.369,0.26-0.611,0.638-0.729,1.131l-2.263-0.239
		c0.204-1.101,0.704-1.907,1.501-2.413c0.798-0.508,1.893-0.762,3.285-0.762c0.898,0,1.641,0.116,2.228,0.348
		c0.586,0.232,1.054,0.552,1.403,0.958c0.348,0.406,0.589,0.888,0.728,1.446c0.138,0.558,0.206,1.171,0.206,1.837v7.067h-2.37V18.75
		z M49.208,14.945c-0.739,0.043-1.338,0.122-1.794,0.239c-0.456,0.116-0.808,0.264-1.055,0.445c-0.245,0.182-0.409,0.391-0.49,0.63
		c-0.079,0.24-0.119,0.497-0.119,0.773c0,0.492,0.156,0.876,0.467,1.151c0.312,0.276,0.773,0.413,1.382,0.413
		c1.086,0,1.891-0.274,2.414-0.826c0.521-0.55,0.781-1.297,0.781-2.239v-0.653L49.208,14.945z"/>
	<path fill="#1C1C1A" d="M95.522,4.704h5.37c1.175,0,2.143,0.13,2.903,0.391c0.761,0.262,1.359,0.61,1.796,1.044
		c0.434,0.435,0.738,0.939,0.912,1.512c0.172,0.573,0.26,1.17,0.26,1.793c0,0.668-0.088,1.306-0.26,1.914
		c-0.174,0.609-0.482,1.142-0.923,1.598c-0.443,0.457-1.041,0.819-1.796,1.087c-0.753,0.269-1.702,0.403-2.85,0.403H98.11v5.784
		h-2.588V4.704z M100.871,12.249c0.668,0,1.215-0.066,1.642-0.196c0.43-0.13,0.765-0.314,1.013-0.554
		c0.246-0.239,0.415-0.525,0.51-0.859c0.094-0.334,0.142-0.71,0.142-1.131c0-0.435-0.052-0.815-0.152-1.142s-0.28-0.598-0.533-0.815
		c-0.254-0.217-0.594-0.384-1.021-0.5c-0.429-0.116-0.969-0.174-1.621-0.174H98.11v5.371H100.871z"/>
	<path fill="#1C1C1A" d="M115.18,18.75c-0.422,0.508-0.934,0.929-1.545,1.261c-0.609,0.334-1.346,0.501-2.218,0.501
		c-0.535,0-1.036-0.068-1.499-0.207c-0.466-0.138-0.867-0.343-1.207-0.619c-0.342-0.276-0.609-0.627-0.806-1.055
		s-0.293-0.931-0.293-1.511c0-0.784,0.172-1.417,0.521-1.903s0.803-0.866,1.359-1.142s1.187-0.468,1.882-0.576
		c0.694-0.109,1.392-0.176,2.087-0.208l1.674-0.085v-0.479c0-0.855-0.205-1.446-0.618-1.771c-0.414-0.326-0.954-0.49-1.62-0.49
		c-0.77,0-1.338,0.131-1.707,0.392c-0.37,0.26-0.612,0.638-0.729,1.131l-2.261-0.239c0.203-1.101,0.704-1.907,1.5-2.413
		c0.798-0.508,1.894-0.762,3.283-0.762c0.898,0,1.643,0.116,2.229,0.348c0.585,0.232,1.055,0.552,1.403,0.958
		c0.348,0.406,0.59,0.888,0.727,1.446c0.139,0.558,0.208,1.171,0.208,1.837v7.067h-2.37V18.75z M113.549,14.945
		c-0.74,0.043-1.338,0.122-1.796,0.239c-0.456,0.116-0.808,0.264-1.053,0.445c-0.246,0.182-0.41,0.391-0.491,0.63
		c-0.078,0.24-0.119,0.497-0.119,0.773c0,0.492,0.155,0.876,0.467,1.151c0.314,0.276,0.773,0.413,1.384,0.413
		c1.085,0,1.891-0.274,2.413-0.826c0.522-0.55,0.781-1.297,0.781-2.239v-0.653L113.549,14.945z"/>
	<path fill="#1C1C1A" d="M122.682,8.94l-0.001,1.673c0.391-0.599,0.862-1.061,1.413-1.382c0.553-0.323,1.139-0.484,1.762-0.484
		c0.245,0,0.454,0.007,0.619,0.022c0.168,0.015,0.33,0.037,0.489,0.065l-0.282,2.283c-0.159-0.043-0.333-0.073-0.521-0.087
		c-0.188-0.014-0.385-0.021-0.587-0.021c-0.463,0-0.87,0.076-1.219,0.228c-0.349,0.152-0.639,0.351-0.879,0.597
		c-0.24,0.245-0.422,0.523-0.545,0.835c-0.124,0.311-0.185,0.625-0.185,0.943v6.617h-2.479V8.94H122.682z"/>
	<path fill="#1C1C1A" d="M128.183,10.878V8.921h1.782V5.878h2.479v3.043h2.804v1.957h-2.804v5.915c0,0.58,0.119,1.001,0.357,1.262
		c0.242,0.261,0.592,0.392,1.056,0.392c0.247,0,0.481-0.015,0.708-0.044c0.223-0.03,0.444-0.079,0.66-0.152l0.371,1.849
		c-0.695,0.232-1.45,0.348-2.261,0.348c-1.252,0-2.128-0.323-2.625-0.968c-0.498-0.646-0.746-1.612-0.746-2.902v-5.698H128.183z"/>
	<path fill="#1C1C1A" d="M139.598,8.921v1.653c0.506-0.694,1.072-1.204,1.701-1.521c0.628-0.319,1.306-0.479,2.028-0.479
		c2.516,0,3.772,1.391,3.772,4.175v7.48h-2.479v-7.09c0-0.912-0.165-1.554-0.497-1.924c-0.333-0.369-0.824-0.556-1.473-0.556
		c-0.434,0-0.834,0.077-1.203,0.229c-0.366,0.152-0.681,0.359-0.94,0.62c-0.26,0.26-0.467,0.562-0.616,0.902
		c-0.152,0.341-0.229,0.7-0.229,1.076v6.742h-2.477V8.921H139.598z"/>
	<path fill="#1C1C1A" d="M159.863,16.88c-0.205,1.175-0.703,2.085-1.5,2.729c-0.797,0.646-1.942,0.969-3.436,0.969
		c-1.798,0-3.165-0.519-4.102-1.555c-0.932-1.037-1.401-2.498-1.401-4.382c0-0.971,0.136-1.834,0.403-2.588
		c0.27-0.753,0.646-1.388,1.131-1.903c0.485-0.515,1.065-0.905,1.738-1.173c0.677-0.269,1.418-0.403,2.23-0.403
		c0.87,0,1.623,0.134,2.262,0.403c0.637,0.268,1.166,0.645,1.586,1.13c0.421,0.485,0.731,1.066,0.937,1.74
		c0.203,0.674,0.305,1.425,0.305,2.251v1.087h-8.11c0.027,1.028,0.288,1.863,0.78,2.5c0.495,0.639,1.24,0.957,2.241,0.957
		c0.782,0,1.368-0.153,1.761-0.457c0.391-0.304,0.652-0.739,0.782-1.305H159.863z M157.603,13.465c0-0.927-0.218-1.659-0.652-2.195
		c-0.436-0.536-1.132-0.805-2.089-0.805c-0.914,0-1.609,0.272-2.087,0.815c-0.479,0.544-0.753,1.272-0.826,2.184H157.603z"/>
	<path fill="#1C1C1A" d="M164.842,8.94v1.673c0.393-0.599,0.863-1.061,1.415-1.382c0.55-0.323,1.138-0.484,1.761-0.484
		c0.247,0,0.453,0.007,0.619,0.022c0.169,0.015,0.33,0.037,0.489,0.065l-0.28,2.283c-0.161-0.043-0.335-0.073-0.523-0.087
		c-0.188-0.014-0.385-0.021-0.588-0.021c-0.464,0-0.869,0.076-1.217,0.228c-0.349,0.152-0.641,0.351-0.88,0.597
		c-0.24,0.245-0.422,0.523-0.544,0.835c-0.125,0.311-0.186,0.625-0.186,0.943v6.617h-2.479V8.94H164.842z"/>
	<path fill="#1C1C1A" d="M172.432,16.771c0.045,0.378,0.145,0.686,0.307,0.926c0.159,0.238,0.357,0.431,0.597,0.576
		c0.238,0.145,0.517,0.242,0.836,0.292c0.318,0.052,0.66,0.077,1.022,0.077c0.826,0,1.422-0.123,1.783-0.369
		c0.362-0.247,0.544-0.609,0.544-1.088c0-0.377-0.112-0.696-0.337-0.957c-0.224-0.261-0.684-0.448-1.381-0.565
		c-0.898-0.158-1.688-0.312-2.371-0.457c-0.681-0.144-1.252-0.343-1.716-0.598c-0.466-0.253-0.814-0.579-1.045-0.978
		c-0.232-0.398-0.349-0.938-0.349-1.621c0-0.521,0.116-0.996,0.349-1.423c0.232-0.428,0.558-0.79,0.971-1.088
		c0.413-0.297,0.908-0.525,1.481-0.685c0.573-0.159,1.203-0.239,1.888-0.239c0.869,0,1.596,0.087,2.177,0.261
		c0.582,0.174,1.053,0.413,1.418,0.718c0.362,0.304,0.64,0.652,0.828,1.043c0.188,0.392,0.333,0.805,0.436,1.239l-2.238,0.306
		c-0.176-0.566-0.439-0.986-0.796-1.262c-0.355-0.274-0.945-0.413-1.771-0.413c-0.479,0-0.871,0.044-1.175,0.131
		c-0.304,0.087-0.547,0.195-0.729,0.326c-0.18,0.13-0.303,0.275-0.368,0.436c-0.065,0.159-0.1,0.317-0.1,0.477
		c0,0.247,0.03,0.45,0.088,0.609c0.06,0.159,0.166,0.29,0.317,0.391c0.152,0.103,0.359,0.189,0.621,0.261
		c0.263,0.074,0.591,0.146,0.982,0.218l1.417,0.24c0.755,0.13,1.385,0.297,1.885,0.501c0.503,0.201,0.901,0.451,1.2,0.748
		s0.506,0.642,0.622,1.033S180,16.663,180,17.141c0,1.031-0.396,1.86-1.187,2.49c-0.787,0.63-1.982,0.946-3.574,0.946
		c-0.654,0-1.281-0.062-1.884-0.186c-0.601-0.123-1.142-0.329-1.62-0.618c-0.479-0.29-0.864-0.679-1.161-1.164
		c-0.297-0.486-0.467-1.099-0.512-1.839H172.432z"/>
	<path fill="#81807F" d="M85.535,9.845c0.666-0.86,1.327-1.643,2.172-2.439c-1.934,0.178-3.397,0.266-6.603,0.237h-4.786
		c-0.527,0.007-0.613-0.079-0.613-0.079c-0.195-0.157,0.228-0.665,0.228-0.665l3.772-4.847C79.319,0.952,76.672,0,74.113,0
		c-5.027,0-8.298,3.718-6.126,7.97l0.862,1.696c-3.718,0.446-7.317,3.093-7.317,7.079c0,3.449,2.676,5.531,6.543,5.531
		c1.754,0,3.599-0.416,5.264-1.873l-0.527-0.819c-0.878,1.765-2.081,1.979-2.953,1.979c-3.451,0-6.276-3.599-6.276-6.99
		c0-2.558,1.636-3.896,3.688-3.896c1.754,0,2.587,1.1,3.272,2.319l1.813,3.569c2.438,4.758,3.063,5.74,5.978,5.74
		c4.224,0,7.644-2.052,7.644-5.65c0-3.704-3.462-5.973-8.087-7.079l0.022-0.071L85.535,9.845z M83.453,16.656
		c0,2.646-0.625,5.114-3.271,5.114c-2.083,0-3.42-1.754-5.324-5.441l-5.145-9.994c-1.547-2.915-0.238-5.77,3.004-5.77
		c2.796,0,6.038,1.813,2.379,7.078c-0.573,0.881-1.042,1.31-1.874,2.202C80.567,9.845,83.453,10.648,83.453,16.656"/>
</g>
</svg>
